<svg width="100" height="39" viewBox="0 0 100 39" fill="none" xmlns="http://www.w3.org/2000/svg">
<g opacity="0.8">
<path d="M41.1078 0.29686C36.5363 0.400797 33.3341 3.51198 31.8329 5.35463C31.8329 5.35463 31.7671 5.43308 31.7144 5.49841C31.6518 5.48 31.5902 5.45819 31.53 5.43308C28.3943 4.30908 24.8506 4.09996 21.2801 4.81886C17.8425 5.52341 12.9141 7.28885 9.32955 10.1511C3.04631 15.1826 -0.260615 21.2469 0.0160553 27.2324C0.174188 30.697 1.7815 33.6886 4.65363 35.8842C9.37014 39.5044 17.1563 38.6677 20.2924 38.145C23.7968 37.557 78.6432 27.8073 85.85 26.435C92.3977 25.1935 98.6293 22.9848 99.8815 15.3133C99.9601 14.8601 99.9997 14.401 100 13.9411V13.8879C100 12.0071 99.4061 10.2545 98.3796 9.06543C96.456 6.85677 93.228 6.59544 90.9753 6.58233C87.8396 6.56921 54.1915 7.20966 50.3711 7.28811H50.1209C50.1075 7.17056 50.0944 7.05277 50.0944 7.05277C49.9076 5.56881 49.2787 4.17538 48.2894 3.05367C47.1287 1.74752 44.9418 0.205296 41.1078 0.29686Z" fill="#121110"/>
<path d="M41.0685 11.4305C42.9784 11.352 44.8493 10.5027 44.9943 8.52915C45.0997 7.20915 44.0722 5.85005 41.9774 5.73275C40.9197 5.63888 39.8624 5.91607 38.9867 6.51673C38.4022 6.95331 37.9914 7.5831 37.8276 8.29406C37.6168 9.14362 37.7222 9.84915 38.1305 10.3975C38.6841 11.1164 39.7378 11.4824 41.0685 11.4305Z" fill="white"/>
<path d="M95.796 14.6466C95.5193 15.2477 94.9529 15.875 94.452 15.9534L94.2293 16.0057C94.2293 16.0057 94.4272 14.6728 94.4401 14.2805C94.4797 12.451 94.0442 10.5438 91.1735 10.6997C89.4083 10.8041 86.8393 12.3201 86.4439 15.5996V15.6127L86.4308 15.6258C86.4316 15.6483 86.4271 15.6707 86.4177 15.6911C85.9826 16.828 85.1791 18.4356 84.5995 18.5009C84.5424 18.5079 84.4844 18.5021 84.4297 18.4841C84.375 18.466 84.325 18.4361 84.2832 18.3965C84.2277 18.3346 84.1851 18.2623 84.1579 18.1838C84.1307 18.1052 84.1195 18.0221 84.1249 17.9391C84.1834 17.4027 84.2936 16.8731 84.454 16.3578C84.7018 15.4583 84.8781 14.5406 84.9814 13.6134C85.1922 11.3787 83.8086 10.9343 82.3725 11.0397C81.5169 11.1226 80.7096 11.4749 80.0669 12.0459L79.5524 12.621C79.5524 12.621 79.7897 11.5232 79.8555 11.2226C79.447 11.2357 76.9045 11.327 76.6409 11.327L75.508 15.8619C75.112 16.3845 74.5726 16.8159 74.1115 16.9334L73.8888 16.9856L73.8623 16.7503C73.8464 16.5168 73.8111 16.285 73.7569 16.0574C73.6911 15.5478 73.2429 13.8096 71.5297 13.9539C67.1161 14.3199 67.2485 19.7432 69.8828 18.9723L70.1859 18.8807L70.133 19.2074C69.7774 21.3639 68.8553 22.5007 67.5771 22.6705C67.4842 22.6827 67.3898 22.6738 67.3009 22.6444C67.2119 22.6149 67.1308 22.5657 67.0636 22.5005C66.9395 22.3556 66.8463 22.1869 66.7895 22.0048C66.7327 21.8226 66.7137 21.6308 66.7335 21.4411C66.76 20.3824 68.8808 11.5742 68.8808 11.5742C68.8808 11.5742 65.0601 11.718 64.7834 11.7311C64.5855 12.5413 63.7441 16.0438 63.7441 16.0438L63.6122 16.5011C63.4738 16.961 63.3594 17.4278 63.2694 17.8995V17.927L63.2563 17.9401C63.2429 17.9664 63.2429 17.9923 63.2298 18.0055C62.5844 19.6652 61.4646 21.4685 60.595 21.5601C60.5163 21.5737 60.4354 21.5678 60.3595 21.5427C60.2836 21.5176 60.2151 21.4742 60.16 21.4163C60.0975 21.3501 60.049 21.272 60.0174 21.1867C59.9857 21.1014 59.9715 21.0106 59.9756 20.9196V20.9065L60.0545 20.1889C60.0545 20.1889 62.2283 12.3085 62.3867 11.7858C61.8992 11.7989 57.7229 11.8774 57.7229 11.8774L57.3143 13.3149C57.2089 12.1387 54.7189 10.5705 52.848 12.2434C50.872 14.0076 50.3315 16.6605 50.0288 19.2742L50.0023 19.3787C49.5817 22.5282 48.843 24.6844 46.6427 24.9588C46.211 25.0489 45.7616 24.9937 45.3645 24.8019C46 24.3643 46.542 23.8045 46.959 23.1553C47.7756 21.8093 47.4069 20.6331 46.5504 20.0711C44.8377 18.9602 42.9671 20.3185 42.6379 22.0444C42.4822 22.9015 42.6614 23.7856 43.1385 24.5144C42.5446 24.8542 42.0712 25.2202 41.2546 25.3246C41.0503 25.351 40.8427 25.3292 40.6483 25.2612C40.4538 25.1931 40.278 25.0806 40.1348 24.9326C39.6473 24.2793 40.306 22.1751 40.3983 21.9006C40.3983 21.9006 43.4283 12.9749 43.5996 12.426C43.0727 12.4522 37.4997 12.6351 37.223 12.6487C37.0387 13.2107 36.3272 15.3932 35.6026 17.4056C34.1797 21.3403 30.0427 26.7235 25.7741 27.8213C23.5081 28.4093 21.7295 28.3049 20.6097 27.6122C19.0813 26.6718 18.1986 24.4364 18.7916 21.3C19.0284 19.8 19.4942 18.3452 20.1727 16.9866C23.7432 9.45911 29.4872 11.158 29.1311 11.7331C28.7525 11.8658 28.3865 12.032 28.0375 12.2298C27.1152 12.7133 25.6398 14.1378 25.5875 15.902C25.548 17.0388 25.8642 17.9537 26.4834 18.5548C27.0894 19.1428 27.9853 19.4173 28.9997 19.3259C31.2657 19.1168 33.1101 17.4311 33.1893 14.921C33.2289 13.5619 32.8468 12.451 32.0561 11.6277C30.7782 10.3077 29.2894 9.65436 25.9684 9.74691C20.8171 9.89069 13.0176 13.5369 10.7778 21.6007C10.0269 24.3189 11.0148 27.6122 12.6617 29.102C14.9409 31.1807 17.7735 31.9377 22.7404 31.01C27.1671 30.1866 30.7901 27.194 33.4647 24.0576C33.4669 24.1059 33.4625 24.1542 33.4516 24.2013C32.8193 26.5013 33.6756 28.9582 37.5621 28.4618C39.1825 28.2527 42.0282 27.3378 44.0178 25.7958C44.9268 26.58 46.5078 27.0504 48.299 26.7891C49.0372 26.6847 50.921 26.188 52.5802 23.8225C53.8844 21.9664 54.5432 18.3336 54.9119 16.3736C55.0831 15.458 55.1886 14.8576 55.3326 14.6094C55.4355 14.3225 55.6424 14.0846 55.9124 13.943C56.6108 13.6554 56.9664 14.3219 56.8345 14.8317C56.7031 15.3283 55.9782 17.8243 55.9782 17.8374L55.8463 18.2294C55.4256 19.4447 54.9371 20.8301 54.8978 22.2936C54.8713 23.3651 55.148 24.2147 55.7144 24.7374C56.2413 25.2209 56.9926 25.4169 57.8751 25.2862C60.3164 24.9304 62.0551 22.4747 62.873 21.0501L62.9915 20.841L63.1499 20.5534L63.2419 21.0892C63.624 23.2194 65.3237 24.0818 67.8795 23.7029C71.1862 23.2194 73.1754 21.5205 73.7819 18.567L73.8079 18.4363L73.9267 18.3972C74.2472 18.277 74.5523 18.1192 74.8356 17.927L75.0858 17.757L73.9126 22.5007C74.387 22.4354 77.483 21.9127 77.7332 21.8865C77.7991 21.599 79.1562 15.8483 79.1562 15.8483C79.3935 14.8549 80.0389 12.9601 80.7766 12.9078C80.8499 12.9051 80.9229 12.9176 80.9911 12.9446C81.0592 12.9717 81.121 13.0125 81.1726 13.0647C81.3476 13.2767 81.4328 13.5488 81.4099 13.8227C81.3504 14.553 81.1999 15.2731 80.962 15.9661C80.6371 17.063 80.4123 18.1872 80.2901 19.3247C80.1055 21.3243 81.8051 21.3111 82.3057 21.2327C83.5045 21.0629 85.0989 20.4356 86.456 17.4821L86.5219 17.7958C86.6648 18.5528 87.0968 19.2243 87.7263 19.6683C88.3558 20.1122 89.1334 20.2937 89.8944 20.1743C91.8048 19.8867 93.109 18.8543 93.8338 17.1551L93.8863 17.0376L94.0048 17.0245C94.7559 16.946 95.7834 16.0841 96.0472 15.0772C95.9539 15.0257 95.941 14.8297 95.796 14.6466ZM45.1918 20.9587C45.8768 20.985 46.1535 21.4042 45.7714 22.2394C45.587 22.6445 45.0465 23.2587 44.3484 23.7814C43.4919 22.4354 44.3351 20.9194 45.1918 20.9587ZM70.5663 17.3648C70.4344 17.5476 70.1703 17.6654 69.7363 17.7439C69.2884 17.8223 69.1698 17.5739 69.1565 17.4694C69.0644 17.0774 69.4992 16.437 69.8682 16.2672C69.9524 16.2231 70.0468 16.2022 70.1417 16.2069C70.2367 16.2115 70.3287 16.2414 70.4082 16.2935C70.7111 16.6461 70.5663 17.3648 70.5663 17.3648ZM91.5932 17.1688C91.3166 17.9921 90.9473 18.8807 90.2096 18.9723C90.1013 18.9926 89.9899 18.9891 89.883 18.962C89.7762 18.9349 89.6765 18.8849 89.591 18.8154C89.3408 18.5927 89.2354 18.3841 89.2487 17.6392C89.2883 15.8881 90.2104 11.5101 91.4621 11.4577C91.5486 11.4548 91.6346 11.4708 91.7143 11.5047C91.7939 11.5385 91.8652 11.5894 91.9231 11.6537C92.1864 11.9412 92.2918 12.4901 92.2263 13.1434L92.2129 13.2219C92.2129 13.2219 90.9087 13.2741 90.7637 15.2083C90.7452 15.5478 90.8186 15.8861 90.9762 16.1874C91.1338 16.4887 91.3698 16.7419 91.6593 16.9203L91.5932 17.1688ZM91.9489 15.8881C91.5282 15.6268 91.5403 14.8557 91.7776 14.5812C91.8214 14.5207 91.8839 14.4763 91.9556 14.455C92.0272 14.4337 92.1038 14.4368 92.1735 14.4637C92.1508 14.9452 92.0756 15.4229 91.9491 15.8881H91.9489Z" fill="white"/>
</g>
</svg>
